<svg width="820" height="760" xmlns="http://www.w3.org/2000/svg" xmlns:svg="http://www.w3.org/2000/svg" xmlns:xlink="http://www.w3.org/1999/xlink">
 <!-- Created with SVG-edit - http://svg-edit.googlecode.com/ -->
 <defs>
  <symbol id="svg_1" viewBox="-36.358 -137.341 1200 846" xmlns:xlink="http://www.w3.org/1999/xlink" xmlns="http://www.w3.org/2000/svg">
   <rect height="89.637" width="160.743" fill="none" y="112.648" x="22.788" id="svg_3"/>
   <text transform="matrix(1,0,0,1,22.7881,123.5444) " id="svg_4">
    <tspan font-size="15.2182" font-family="&#x27;Arial-BoldMT'" fill="#FFFFFF" y="0" x="0" id="svg_5">OCTOBER 27, 1991</tspan>
    <tspan font-size="15.2182" font-family="&#x27;Arial-BoldMT'" fill="#FFFFFF" y="18.262" x="0" id="svg_6">Born in Lima, Peru</tspan>
   </text>
   <rect height="89.637" width="160.742" fill="none" y="112.648" x="221.698" id="svg_7"/>
   <text transform="matrix(1,0,0,1,221.6982,123.5444) " id="svg_8">
    <tspan font-size="15.2182" font-family="&#x27;Arial-BoldMT'" fill="#FFFFFF" y="0" x="0" id="svg_9">JANUARY 19, 2003</tspan>
    <tspan font-size="15.2182" font-family="&#x27;Arial-BoldMT'" fill="#FFFFFF" y="18.262" x="0" id="svg_10">Moved to Miami</tspan>
   </text>
   <g id="svg_11">
    <g id="svg_12">
     <path d="m78.997,91.971c113.82099,0 227.64301,0 341.46302,0c80.61298,0 161.22601,0 241.83899,0c55.94501,0 111.89001,0 167.83398,0c39.815,0 79.63104,0 119.44501,0c8.435,0 16.86902,0 25.30402,0c7.30499,0 14.039,0.555 21.005,3.056c10.09601,3.625 19.23102,10.669 25.54602,19.296c7.67999,10.494 8.47101,21.718 8.47101,34.27501c0,15.125 0,30.25099 0,45.37599c0,12.396 1.90601,26.27901 -2.32397,38.147c-3.54602,9.94901 -11.60803,18.23399 -19.97607,24.35001c-7.216,5.27499 -15.60901,9.509 -24.47699,11.004c-6.08197,1.02499 -12.81097,0.207 -18.95898,0.207c-8.47302,0 -16.94501,0 -25.41803,0c-31.06897,0 -62.13898,0 -93.20898,0c-55.21198,0 -110.42499,0 -165.63696,0c-85.28204,0 -170.56403,0 -255.84598,0c-56.64206,0 -113.28302,0 -169.92401,0c-33.862,0 -67.72299,0 -101.584,0c-11.435,0 -22.98999,-0.45599 -34.411,0.138c-17.38499,0.90399 -31.91299,9.79898 -37.17101,26.785c-1.818,5.87 -2.30999,12.15598 -2.417,18.271c-0.215,12.267 -0.019,24.55298 -0.019,36.82199c0,29.47299 -4.674,79.427 35.10101,84.45901c7.527,0.952 15.34798,0.39899 22.89098,0.39899c15.91801,0 31.83601,0 47.75401,0c29.11801,0 58.237,0 87.35498,0c84.98203,0 169.96301,0 254.94504,0c47.01196,0 94.02399,0 141.03601,0c25.60095,0 51.20099,0 76.802,0c14.46997,0 28.93896,0 43.409,0c4.51398,0 4.51398,-7 0,-7c-20.43701,0 -40.87305,0 -61.31,0c-29.927,0 -59.854,0 -89.78003,0c-55.97498,0 -111.94897,0 -167.92401,0c-98.57999,0 -197.15997,0 -295.73996,0c-16.14301,0 -32.286,0 -48.42901,0c-4.711,0 -9.416,0.048 -14.045,-0.94601c-14.67,-3.14999 -20.886,-16.71799 -23.478,-30.28699c-2.264,-11.85699 -1.58801,-24.16599 -1.58801,-36.17599c0,-13.97501 0,-27.94901 0,-41.92401c0,-12.89099 0.678,-26.65799 11.009,-35.854c12.139,-10.806 33.45802,-7.68698 48.93298,-7.68698c13.54501,0 27.09001,0 40.63501,0c42.27,0 84.54103,0 126.81099,0c67.39499,0 134.789,0 202.18405,0c98.37897,0 196.758,0 295.13696,0c30.12299,0 60.24597,0 90.36798,0c15.95404,0 31.90704,0 47.86102,0c7.87299,0 15.74701,0 23.62097,0c5.26196,0 10.362,0.164 15.521,-0.96701c18.17603,-3.98593 35.86603,-18.06197 44.40497,-34.42497c5.46301,-10.47 4.88904,-21.48001 4.88904,-32.95099c0,-15.04901 0,-30.097 0,-45.14603c0,-12.70798 1.354,-25.99699 -2.98499,-38.17699c-3.52295,-9.891 -10.33698,-18.361 -18.49701,-24.834c-7.729,-6.132 -16.91498,-10.505 -26.61298,-12.37901c-5.56903,-1.076 -11.25903,-0.833 -16.90002,-0.833c-17.45898,0 -34.91797,0 -52.37701,0c-43.47095,0 -86.94098,0 -130.41199,0c-61.98999,0 -123.98102,0 -185.97302,0c-89.05096,0 -178.10101,0 -267.15201,0c-85.66599,0 -171.33199,0 -256.99797,0c-4.51505,0.00101 -4.51505,7.00101 -0.00105,7.00101l0,0l0,-0.00002l0.00002,0z" fill="#D3D2D2" id="svg_13"/>
    </g>
   </g>
   <circle r="17.637" cy="85.869" cx="86.229" fill="#E6E7E8" id="svg_14"/>
   <circle r="10.868" cy="88.471" cx="448.99" fill="#E6E7E8" id="svg_15"/>
   <circle r="10.868" cy="88.471" cx="681.056" fill="#E6E7E8" id="svg_16"/>
   <circle r="10.868" cy="88.471" cx="289.156" fill="#E6E7E8" id="svg_17"/>
   <circle r="16.508" cy="267.778" cx="994.646" fill="#E6E7E8" id="svg_18"/>
   <circle r="10.868" cy="270.554" cx="797.396" fill="#E6E7E8" id="svg_19"/>
   <circle r="10.868" cy="270.554" cx="607.425" fill="#E6E7E8" id="svg_20"/>
   <circle r="10.868" cy="270.554" cx="410.697" fill="#E6E7E8" id="svg_21"/>
   <circle r="10.868" cy="430.426" cx="269.675" fill="#E6E7E8" id="svg_22"/>
   <circle r="10.868" cy="353.628" cx="82.032" fill="#E6E7E8" id="svg_23"/>
   <circle r="10.868" cy="430.426" cx="457.75" fill="#E6E7E8" id="svg_24"/>
   <circle r="16.792" cy="430.426" cx="642.615" fill="#E6E7E8" id="svg_25"/>
   <circle r="14.587" cy="98.587" cx="1008.384" fill="#E6E7E8" id="svg_26"/>
   <g id="svg_27">
    <g id="svg_28">
     <path d="m132.86099,259.686c0,7.245 0,14.48999 0,21.73502c0,4.51398 7,4.51398 7,0c0,-7.24503 0,-14.49002 0,-21.73502c0,-4.51401 -7,-4.51401 -7,0l0,0z" fill="#D3D2D2" id="svg_29"/>
    </g>
   </g>
   <path d="m96.824,8.084c-4.271,0 -8.081,-1.985 -10.578,-5.089l-0.035,0c-2.496,3.104 -6.305,5.089 -10.577,5.089c-3.738,0 -7.126,-1.52 -10.648,-3.982l0,31.466c0,0 3.082,11.198 21.244,16.288c18.16299,-5.09 21.244,-16.288 21.244,-16.288l0,-31.465c-3.525,2.461 -6.912,3.981 -10.65,3.981z" stroke-miterlimit="10" stroke-linejoin="round" stroke-linecap="round" stroke-width="3" stroke="#FFFFFF" fill="none" id="svg_30"/>
   <polygon points="  96.852,21.053 90.478,21.053 90.478,14.68 81.98,14.68 81.98,21.053 75.607,21.053 75.607,29.55 81.98,29.55 81.98,35.924   90.478,35.924 90.478,29.55 96.852,29.55 " stroke-miterlimit="10" stroke-linejoin="round" stroke-linecap="round" stroke-width="3" stroke="#FFFFFF" fill="none" id="svg_31"/>
   <path d="m329.185,6.432c-0.85098,-1.825 -2.81601,-4.002 -7.34799,-4.002c-3.19699,0 -6.73102,1.123 -8.97501,2.169l-13.22601,6.182l-26.43997,-4.095l-8.298,3.878l17.336,8.351l-10.57901,4.946l-14.17099,-6.183c-0.49197,-0.214 -1.05301,-0.208 -1.53697,0.021l-4.793,2.239c-0.533,0.249 -0.91702,0.73 -1.04002,1.307c-0.12099,0.573 0.03201,1.173 0.418,1.615l14.31699,16.422c0.10599,0.117 0.22501,0.224 0.354,0.312c2.54901,2.442 6.65201,3.089 10.00299,1.523l13.948,-6.521l-1.20499,24.543c-0.03601,0.652 0.276,1.28 0.82098,1.643c0.31302,0.21 0.67603,0.317 1.04401,0.317c0.26801,0 0.54102,-0.056 0.793,-0.175l6.259,-2.927c0.45901,-0.212 0.814,-0.608 0.97699,-1.086l10.77103,-31.408l11.50299,-5.373c1.76599,-0.829 4.60199,-2.651 6.76999,-5.076c3.44299,-3.834 3.15201,-6.804 2.298,-8.622zm-59.927,4.155l4.21399,-1.971l23.12701,3.587l-12.177,5.692l-15.164,-7.308zm54.85001,1.972c-1.68301,1.876 -4.009,3.453 -5.57401,4.183l-12.22198,5.712c-0.45801,0.214 -0.81,0.605 -0.97501,1.086l-10.77301,31.408l-2.73099,1.272l1.211,-24.539c0.03198,-0.651 -0.28101,-1.275 -0.82602,-1.638c-0.31299,-0.214 -0.677,-0.32 -1.04099,-0.32c-0.272,0 -0.54199,0.058 -0.79401,0.173l-16.76099,7.833c-2.04602,0.959 -4.534,0.534 -5.98001,-0.984c-0.064,-0.067 -0.13,-0.126 -0.20099,-0.181l-12.45604,-14.288l1.77702,-0.83l14.17401,6.179c0.48895,0.213 1.04999,0.206 1.53598,-0.02l41.96899,-19.616c1.79398,-0.837 4.811,-1.818 7.39499,-1.818c3.10101,0 3.74899,1.387 3.961,1.846c0.71301,1.516 -0.75299,3.498 -1.689,4.542l0.00003,0z" fill="#FFFFFF" id="svg_32"/>
   <path d="m290.48199,24.342l-1.69101,0.79c-0.466,0.221 -0.67099,0.779 -0.44998,1.245c0.15799,0.34 0.49399,0.541 0.849,0.541c0.13098,0 0.26498,-0.027 0.396,-0.091l1.69,-0.79c0.47,-0.218 0.66998,-0.775 0.44998,-1.245c-0.21698,-0.465 -0.76898,-0.664 -1.24399,-0.45z" fill="#FFFFFF" id="svg_33"/>
   <path d="m276.93701,30.674l-1.694,0.793c-0.466,0.219 -0.67001,0.771 -0.45001,1.245c0.159,0.336 0.49402,0.538 0.84601,0.538c0.134,0 0.26901,-0.032 0.397,-0.087l1.69101,-0.794c0.47098,-0.221 0.672,-0.775 0.44998,-1.244c-0.21701,-0.467 -0.76999,-0.667 -1.23999,-0.451z" fill="#FFFFFF" id="svg_34"/>
   <path d="m283.711,27.511l-1.694,0.79c-0.466,0.221 -0.668,0.778 -0.45499,1.244c0.16199,0.339 0.49799,0.537 0.849,0.537c0.13498,0 0.272,-0.028 0.396,-0.087l1.698,-0.79c0.461,-0.222 0.668,-0.779 0.45099,-1.245c-0.22101,-0.469 -0.77798,-0.667 -1.245,-0.449z" fill="#FFFFFF" id="svg_35"/>
   <path d="m310.80801,14.846l-1.694,0.79c-0.466,0.218 -0.668,0.775 -0.45099,1.245c0.159,0.34 0.49899,0.538 0.84998,0.538c0.13,0 0.26501,-0.028 0.39502,-0.087l1.694,-0.794c0.46698,-0.217 0.668,-0.774 0.45099,-1.241c-0.22202,-0.466 -0.77499,-0.668 -1.245,-0.451z" fill="#FFFFFF" id="svg_36"/>
   <path d="m317.582,11.677l-1.69,0.795c-0.47,0.217 -0.67099,0.774 -0.45499,1.24c0.16199,0.34 0.49899,0.541 0.84998,0.541c0.13101,0 0.26801,-0.027 0.39502,-0.087l1.694,-0.793c0.46799,-0.217 0.668,-0.774 0.452,-1.24c-0.22,-0.471 -0.77499,-0.673 -1.246,-0.456z" fill="#FFFFFF" id="svg_37"/>
   <path d="m304.03299,18.01l-1.69501,0.794c-0.466,0.217 -0.66699,0.774 -0.44901,1.24c0.15903,0.34 0.49701,0.541 0.849,0.541c0.13101,0 0.26501,-0.028 0.39603,-0.087l1.69,-0.794c0.47098,-0.221 0.67297,-0.774 0.45099,-1.244c-0.21399,-0.465 -0.772,-0.664 -1.242,-0.45z" fill="#FFFFFF" id="svg_38"/>
   <path d="m297.258,21.178l-1.69299,0.791c-0.46802,0.217 -0.668,0.774 -0.45099,1.244c0.16199,0.34 0.49399,0.537 0.849,0.537c0.13498,0 0.26498,-0.027 0.396,-0.087l1.69498,-0.793c0.466,-0.217 0.668,-0.774 0.45001,-1.24c-0.21799,-0.472 -0.776,-0.669 -1.246,-0.452z" fill="#FFFFFF" id="svg_39"/>
   <polygon points="  539.727,25.824 561.981,14.695 561.981,49.196 539.727,60.324 517.473,49.196 517.473,14.695 " stroke-miterlimit="10" stroke-linejoin="round" stroke-linecap="round" stroke-width="2.5" stroke="#FFFFFF" fill="none" id="svg_40"/>
   <polyline points="  557.532,11.302 539.727,20.313 521.92,11.302 " stroke-miterlimit="10" stroke-linejoin="round" stroke-linecap="round" stroke-width="2.5" stroke="#FFFFFF" fill="none" id="svg_41"/>
   <line y2="60.324" x2="539.727" y1="25.824" x1="539.727" stroke-miterlimit="10" stroke-linejoin="round" stroke-linecap="round" stroke-width="2.5" stroke="#FFFFFF" fill="none" id="svg_42"/>
   <path d="m591.72699,54.821c0,2.817 -2.284,5.103 -5.10303,5.103c-2.81598,0 -5.10199,-2.286 -5.10199,-5.103l0,-34.438l5.10199,-11.48l5.10303,11.48l0,34.438z" stroke-miterlimit="10" stroke-linejoin="round" stroke-linecap="round" stroke-width="2.5" stroke="#FFFFFF" fill="none" id="svg_43"/>
   <line y2="52.27" x2="591.727" y1="52.27" x1="581.522" stroke-miterlimit="10" stroke-linejoin="round" stroke-linecap="round" stroke-width="2.5" stroke="#FFFFFF" fill="none" id="svg_44"/>
   <line y2="47.168" x2="591.727" y1="47.168" x1="581.522" stroke-miterlimit="10" stroke-linejoin="round" stroke-linecap="round" stroke-width="2.5" stroke="#FFFFFF" fill="none" id="svg_45"/>
   <rect height="58.674" width="15.306" stroke-miterlimit="10" stroke-linejoin="round" stroke-linecap="round" stroke-width="2.5" stroke="#FFFFFF" fill="none" y="1.25" x="599.381" id="svg_46"/>
   <line y2="8.903" x2="604.483" y1="8.903" x1="599.381" stroke-miterlimit="10" stroke-linejoin="round" stroke-linecap="round" stroke-width="2.5" stroke="#FFFFFF" fill="none" id="svg_47"/>
   <line y2="19.108" x2="604.483" y1="19.108" x1="599.381" stroke-miterlimit="10" stroke-linejoin="round" stroke-linecap="round" stroke-width="2.5" stroke="#FFFFFF" fill="none" id="svg_48"/>
   <line y2="29.312" x2="604.483" y1="29.312" x1="599.381" stroke-miterlimit="10" stroke-linejoin="round" stroke-linecap="round" stroke-width="2.5" stroke="#FFFFFF" fill="none" id="svg_49"/>
   <line y2="39.516" x2="604.483" y1="39.516" x1="599.381" stroke-miterlimit="10" stroke-linejoin="round" stroke-linecap="round" stroke-width="2.5" stroke="#FFFFFF" fill="none" id="svg_50"/>
   <line y2="49.719" x2="604.483" y1="49.719" x1="599.381" stroke-miterlimit="10" stroke-linejoin="round" stroke-linecap="round" stroke-width="2.5" stroke="#FFFFFF" fill="none" id="svg_51"/>
   <line y2="20.383" x2="591.727" y1="20.383" x1="581.522" stroke-miterlimit="10" stroke-linejoin="round" stroke-linecap="round" stroke-width="2.5" stroke="#FFFFFF" fill="none" id="svg_52"/>
   <line y2="47.168" x2="586.624" y1="20.383" x1="586.624" stroke-miterlimit="10" stroke-linejoin="round" stroke-linecap="round" stroke-width="2.5" stroke="#FFFFFF" fill="none" id="svg_53"/>
   <polygon points="  821.909,47.479 798.756,47.479 775.604,47.479 775.604,20.24 821.909,20.24 " stroke-miterlimit="10" stroke-linejoin="round" stroke-linecap="round" stroke-width="2.5" stroke="#FFFFFF" fill="none" id="svg_54"/>
   <path d="m770.15302,52.927l0,-34.049c0,-2.258 1.83301,-4.086 4.086,-4.086l49.03101,0c2.25598,0 4.086,1.828 4.086,4.086l0,34.049" stroke-miterlimit="10" stroke-linejoin="round" stroke-linecap="round" stroke-width="2.5" stroke="#FFFFFF" fill="none" id="svg_55"/>
   <path d="m805.56403,52.927l0,2.724l-13.61902,0l0,-2.724l-24.51495,0l0,5.448c0,1.504 1.22198,2.724 2.72296,2.724l57.203,0c1.50403,0 2.724,-1.22 2.724,-2.724l0,-5.448l-24.51599,0z" stroke-miterlimit="10" stroke-linejoin="round" stroke-linecap="round" stroke-width="2.5" stroke="#FFFFFF" fill="none" id="svg_56"/>
   <rect height="53.955" width="38.539" stroke-miterlimit="10" stroke-linejoin="round" stroke-linecap="round" stroke-width="2.5" stroke="#FFFFFF" fill="none" transform="matrix(0.7071,0.7071,-0.7071,0.7071,281.1958,-602.9744) " y="10.952" x="849.146" id="svg_57"/>
   <rect height="10.278" width="15.416" stroke-miterlimit="10" stroke-linejoin="round" stroke-linecap="round" stroke-width="2.5" stroke="#FFFFFF" fill="none" transform="matrix(0.7071,0.7071,-0.7071,0.7071,278.7087,-611.5189) " y="25.522" x="869.792" id="svg_58"/>
   <line y2="12.493" x2="870.232" y1="8.86" x1="866.601" stroke-miterlimit="10" stroke-linejoin="round" stroke-linecap="round" stroke-width="2.5" stroke="#FFFFFF" fill="none" id="svg_59"/>
   <line y2="17.944" x2="864.782" y1="14.311" x1="861.148" stroke-miterlimit="10" stroke-linejoin="round" stroke-linecap="round" stroke-width="2.5" stroke="#FFFFFF" fill="none" id="svg_60"/>
   <line y2="23.394" x2="859.332" y1="19.762" x1="855.699" stroke-miterlimit="10" stroke-linejoin="round" stroke-linecap="round" stroke-width="2.5" stroke="#FFFFFF" fill="none" id="svg_61"/>
   <line y2="28.845" x2="853.882" y1="25.211" x1="850.248" stroke-miterlimit="10" stroke-linejoin="round" stroke-linecap="round" stroke-width="2.5" stroke="#FFFFFF" fill="none" id="svg_62"/>
   <line y2="34.295" x2="848.432" y1="30.662" x1="844.798" stroke-miterlimit="10" stroke-linejoin="round" stroke-linecap="round" stroke-width="2.5" stroke="#FFFFFF" fill="none" id="svg_63"/>
   <line y2="39.746" x2="842.98" y1="36.112" x1="839.349" stroke-miterlimit="10" stroke-linejoin="round" stroke-linecap="round" stroke-width="2.5" stroke="#FFFFFF" fill="none" id="svg_64"/>
   <rect height="10.279" width="7.709" stroke-miterlimit="10" stroke-linejoin="round" stroke-linecap="round" stroke-width="2.5" stroke="#FFFFFF" fill="none" transform="matrix(0.7071,0.7071,-0.7071,0.7071,292.602,-621.5085) " y="37.331" x="892.721" id="svg_65"/>
   <rect height="10.277" width="7.708" stroke-miterlimit="10" stroke-linejoin="round" stroke-linecap="round" stroke-width="2.5" stroke="#FFFFFF" fill="none" transform="matrix(0.7071,0.7071,-0.7071,0.7071,295.6417,-614.2677) " y="44.599" x="885.454" id="svg_66"/>
   <rect height="10.277" width="7.709" stroke-miterlimit="10" stroke-linejoin="round" stroke-linecap="round" stroke-width="2.5" stroke="#FFFFFF" fill="none" transform="matrix(0.7071,0.7071,-0.7071,0.7071,298.6525,-607.0012) " y="51.867" x="878.187" id="svg_67"/>
   <rect height="10.277" width="7.709" stroke-miterlimit="10" stroke-linejoin="round" stroke-linecap="round" stroke-width="2.5" stroke="#FFFFFF" fill="none" transform="matrix(0.707,0.7072,-0.7072,0.707,301.7519,-599.8111) " y="59.134" x="870.92" id="svg_68"/>
   <path d="m1040.828,40.869l2.74902,0c4.55298,0 8.24402,3.693 8.24402,8.246c0,4.552 -3.69104,8.245 -8.24402,8.245l-2.74902,0" stroke-miterlimit="10" stroke-linejoin="round" stroke-linecap="round" stroke-width="2.5" stroke="#FFFFFF" fill="none" id="svg_69"/>
   <path d="m1040.828,65.604c0,3.035 -2.45996,5.498 -5.495,5.498l-24.73602,0c-3.034,0 -5.49799,-2.463 -5.49799,-5.498l0,-30.231l35.729,0l0,30.231z" stroke-miterlimit="10" stroke-linejoin="round" stroke-linecap="round" stroke-width="2.5" stroke="#FFFFFF" fill="none" id="svg_70"/>
   <path d="m1040.50403,8.064c2.83496,4.325 -1.36804,6.698 -2.34399,9.02c-1.03906,2.458 -0.03003,4.814 2.43103,5.851c7.96997,3.36 10.34497,-12.347 -0.08704,-14.871z" stroke-miterlimit="10" stroke-linejoin="round" stroke-linecap="round" stroke-width="2.5" stroke="#FFFFFF" fill="none" id="svg_71"/>
   <line y2="22.489" x2="1039.756" y1="35.373" x1="1032.583" stroke-miterlimit="10" stroke-linejoin="round" stroke-linecap="round" stroke-width="2.5" stroke="#FFFFFF" fill="none" id="svg_72"/>
   <line y2="35.373" x2="1038.082" y1="23.434" x1="1042.591" stroke-miterlimit="10" stroke-linejoin="round" stroke-linecap="round" stroke-width="2.5" stroke="#FFFFFF" fill="none" id="svg_73"/>
   <polygon points="  1016.093,35.373 1007.848,35.373 1003.728,27.127 1002.353,18.882 1009.223,23.004 " stroke-miterlimit="10" stroke-linejoin="round" stroke-linecap="round" stroke-width="2.5" stroke="#FFFFFF" fill="none" id="svg_74"/>
   <line y2="23.004" x2="1009.223" y1="27.127" x1="1003.728" stroke-miterlimit="10" stroke-linejoin="round" stroke-linecap="round" stroke-width="2.5" stroke="#FFFFFF" fill="none" id="svg_75"/>
   <rect height="27.484" width="10.993" stroke-miterlimit="10" stroke-linejoin="round" stroke-linecap="round" stroke-width="2.5" stroke="#FFFFFF" fill="none" y="7.889" x="1018.843" id="svg_76"/>
   <line y2="13.386" x2="1024.339" y1="13.386" x1="1029.836" stroke-miterlimit="10" stroke-linejoin="round" stroke-linecap="round" stroke-width="2.5" stroke="#FFFFFF" fill="none" id="svg_77"/>
   <line y2="18.882" x2="1027.087" y1="18.882" x1="1029.836" stroke-miterlimit="10" stroke-linejoin="round" stroke-linecap="round" stroke-width="2.5" stroke="#FFFFFF" fill="none" id="svg_78"/>
   <line y2="24.379" x2="1024.339" y1="24.379" x1="1029.836" stroke-miterlimit="10" stroke-linejoin="round" stroke-linecap="round" stroke-width="2.5" stroke="#FFFFFF" fill="none" id="svg_79"/>
   <line y2="29.875" x2="1027.087" y1="29.875" x1="1029.836" stroke-miterlimit="10" stroke-linejoin="round" stroke-linecap="round" stroke-width="2.5" stroke="#FFFFFF" fill="none" id="svg_80"/>
   <path d="m996.55902,188.451l-11.24799,0l0,-7.086c0,-0.88301 -0.71204,-1.593 -1.59399,-1.593l-18.37305,0c-0.87994,0 -1.59296,0.70999 -1.59296,1.593l0,7.086l-11.25201,0c-4.39203,0 -7.96802,3.57599 -7.96802,7.966l0,28.67899c0,4.39401 3.57599,7.97002 7.96802,7.97002l44.06,0c4.39203,0 7.96997,-3.576 7.96997,-7.97002l0,-28.67899c-0.00098,-4.39001 -3.57898,-7.966 -7.96997,-7.966zm-19.33905,18.81999l-5.37903,0c-0.43799,0 -0.797,0.35701 -0.797,0.795l0,1.89601l-18.54498,0c-3.07397,0 -5.57599,-2.505 -5.57599,-5.57901l0,-7.96599c0,-3.07002 2.50201,-5.576 5.57599,-5.576l44.06,0c3.07501,0 5.57904,2.506 5.57904,5.576l0,7.96599c0,3.07401 -2.50403,5.57901 -5.57904,5.57901l-18.54199,0l0,-1.89601c0.00006,-0.43799 -0.35699,-0.795 -0.797,-0.795zm-0.79498,1.59299l0,3.78401l-3.78601,0l0,-3.78401l3.78601,0zm-9.487,-25.907l15.18597,0l0,5.49501l-15.18597,0l0,-5.49501zm29.62103,46.92l-44.06,0c-2.63702,0 -4.78003,-2.142 -4.78003,-4.782l0,-15.40701c1.27203,1.145 2.93805,1.86601 4.78003,1.86601l18.54498,0l0,1.892c0,0.44098 0.35803,0.79402 0.797,0.79402l5.37903,0c0.44,0 0.797,-0.35301 0.797,-0.79402l0,-1.892l18.54199,0c1.84198,0 3.50897,-0.72101 4.78003,-1.86601l0,15.40701c-0.00006,2.64 -2.14404,4.782 -4.78003,4.782z" stroke-miterlimit="10" stroke-width="0.5" stroke="#FFFFFF" fill="#FFFFFF" id="svg_81"/>
   <path d="m779.784,228.373c2.75299,0 4.98798,-2.235 4.98798,-4.985c0,-2.75 -2.23499,-4.98199 -4.98798,-4.98199c-2.74799,0 -4.987,2.23199 -4.987,4.98199c0,2.75 2.23901,4.985 4.987,4.985zm0,-8.256c1.80798,0 3.276,1.465 3.276,3.271c0,1.80499 -1.46899,3.274 -3.276,3.274c-1.80701,0 -3.27502,-1.46901 -3.27502,-3.274c0,-1.80501 1.46906,-3.271 3.27502,-3.271z" fill="#FFFFFF" id="svg_82"/>
   <path d="m782.63397,229.09l-5.70203,0c-2.77496,0 -5.10297,2.265 -5.18695,5.04001c0,0.011 0,0.224 0,0.23001l0,4.34201c0,0.47501 0.38495,0.85799 0.85596,0.85799l14.36902,0c0.474,0 0.854,-0.38399 0.854,-0.85799l0,-4.54399c0,-0.043 -0.00299,-0.082 -0.00903,-0.123c-0.12494,-2.735 -2.42896,-4.94501 -5.18097,-4.94501l0,-0.00003zm3.48206,8.75801l-12.659,0l0,-3.48799l-0.85498,0l0.85901,-0.17601c0.05298,-1.86299 1.60999,-3.383 3.47095,-3.383l5.70203,0c1.86499,0 3.427,1.51601 3.47498,3.379c0.00201,0.062 0.01202,0.12 0.02405,0.174l-0.01703,3.494z" fill="#FFFFFF" id="svg_83"/>
   <path d="m818.75403,207.11501l-46.04901,0c-4.71997,0 -8.56201,3.838 -8.56201,8.56l0,26.617c0,4.717 3.84204,8.56 8.56201,8.56l46.04901,0c4.72198,0 8.56201,-3.843 8.56201,-8.56l0,-26.617c-0.00006,-4.722 -3.84003,-8.56 -8.56201,-8.56zm5.13995,35.177c0,2.83199 -2.30499,5.13399 -5.14001,5.13399l-46.04901,0c-2.83197,0 -5.13696,-2.302 -5.13696,-5.13399l0,-26.617c0,-2.83199 2.30499,-5.13699 5.13696,-5.13699l46.04901,0c2.83502,0 5.14001,2.306 5.14001,5.13699l0,26.617z" fill="#FFFFFF" id="svg_84"/>
   <path d="m819.61603,213.91299l-19.82397,0c-0.474,0 -0.85699,0.37999 -0.85699,0.85399s0.38397,0.854 0.85699,0.854l19.82397,0c0.47498,0 0.85901,-0.37901 0.85901,-0.854s-0.38403,-0.85399 -0.85901,-0.85399z" fill="#FFFFFF" id="svg_85"/>
   <path d="m819.61603,218.40601l-19.82397,0c-0.474,0 -0.85699,0.38 -0.85699,0.854c0,0.47501 0.38397,0.85699 0.85699,0.85699l19.82397,0c0.47498,0 0.85901,-0.38301 0.85901,-0.85699c0.00098,-0.47401 -0.38403,-0.854 -0.85901,-0.854z" fill="#FFFFFF" id="svg_86"/>
   <path d="m811.91302,222.899l-12.12103,0c-0.474,0 -0.85699,0.38 -0.85699,0.855c0,0.474 0.38403,0.856 0.85699,0.856l12.12103,0c0.47498,0 0.85602,-0.383 0.85602,-0.856c0.00098,-0.47499 -0.38104,-0.855 -0.85602,-0.855z" fill="#FFFFFF" id="svg_87"/>
   <path d="m613.34497,246.006l-40.09198,0c-4.41901,0 -4.422,-6.683 0,-6.683l40.09198,0c4.41803,0.00101 4.42004,6.683 0,6.683z" stroke-miterlimit="10" stroke-linejoin="round" stroke-linecap="round" stroke-width="2.5" stroke="#FFFFFF" fill="none" id="svg_88"/>
   <path d="m605.87402,232.709c0.51099,-1.412 0.78802,-2.93401 0.78802,-4.521c0,-7.38 -5.98303,-13.364 -13.36401,-13.364c-7.38,0 -13.362,5.983 -13.362,13.364c0,1.554 0.26501,3.047 0.75299,4.433" stroke-miterlimit="10" stroke-linejoin="round" stroke-linecap="round" stroke-width="2.5" stroke="#FFFFFF" fill="none" id="svg_89"/>
   <circle r="5.568" cy="204.802" cx="593.298" stroke-miterlimit="10" stroke-linejoin="round" stroke-linecap="round" stroke-width="2.5" stroke="#FFFFFF" fill="none" id="svg_90"/>
   <line y2="204.802" x2="598.866" y1="204.802" x1="587.729" stroke-miterlimit="10" stroke-linejoin="round" stroke-linecap="round" stroke-width="2.5" stroke="#FFFFFF" fill="none" id="svg_91"/>
   <line y2="214.824" x2="593.298" y1="210.37" x1="593.298" stroke-miterlimit="10" stroke-linejoin="round" stroke-linecap="round" stroke-width="2.5" stroke="#FFFFFF" fill="none" id="svg_92"/>
   <path d="m587.16803,216.30701c-1.83301,-0.948 -3.91302,-1.483 -6.11902,-1.483c-7.38,0 -13.36395,5.983 -13.36395,13.364c0,4.65001 2.37897,8.74301 5.98297,11.136l39.26099,0c3.60504,-2.39299 5.98004,-6.48599 5.98004,-11.136c0,-7.37999 -5.98206,-13.364 -13.36005,-13.364c-2.20801,0 -4.29199,0.537 -6.12396,1.48401" stroke-miterlimit="10" stroke-linejoin="round" stroke-linecap="round" stroke-width="2.5" stroke="#FFFFFF" fill="none" id="svg_93"/>
   <path d="m675.638,189.104l-37.526,0c-0.896,0 -1.62097,0.728 -1.62097,1.621l0,4.161l-4.16101,0c-0.89703,0 -1.62402,0.72701 -1.62402,1.625l0,4.16l-4.16199,0c-0.89703,0 -1.62103,0.72299 -1.62103,1.62198l0,46.49701c0,0.899 0.724,1.62701 1.62103,1.62701l37.526,0c0.896,0 1.62299,-0.72801 1.62299,-1.62701l0,-4.15799l4.16101,0c0.896,0 1.62299,-0.724 1.62299,-1.623l0,-4.15799l4.16101,0c0.89697,0 1.62402,-0.728 1.62402,-1.623l0,-46.502c0,-0.89502 -0.72705,-1.62201 -1.62402,-1.62201zm-13.19202,58.067l-34.27899,0l0,-43.25699l34.27899,0l0,43.25699zm5.78302,-5.78401l-2.53601,0l0,-39.09401c0,-0.89899 -0.72797,-1.62198 -1.62299,-1.62198l-30.117,0l0,-2.539l34.276,0l0,43.25499zm5.78601,-5.78299l-2.53802,0l0,-39.09401c0,-0.899 -0.72797,-1.625 -1.62299,-1.625l-30.12,0l0,-2.534l34.28101,0l0,43.25301z" fill="#FFFFFF" id="svg_94"/>
   <path d="m632.755,219.964l25.104,0c0.44897,0 0.81299,-0.364 0.81299,-0.813c0,-0.44501 -0.36401,-0.80901 -0.81299,-0.80901l-25.104,0c-0.448,0 -0.81201,0.364 -0.81201,0.80901c0,0.45 0.36401,0.813 0.81201,0.813z" fill="#FFFFFF" id="svg_95"/>
   <path d="m632.755,224.22701l25.104,0c0.44897,0 0.81299,-0.364 0.81299,-0.812c0,-0.45 -0.36401,-0.813 -0.81299,-0.813l-25.104,0c-0.448,0 -0.81201,0.36302 -0.81201,0.813c0,0.448 0.36401,0.812 0.81201,0.812z" fill="#FFFFFF" id="svg_96"/>
   <path d="m632.755,228.48599l25.104,0c0.44897,0 0.81299,-0.364 0.81299,-0.813s-0.36401,-0.812 -0.81299,-0.812l-25.104,0c-0.448,0 -0.81201,0.36299 -0.81201,0.812s0.36401,0.813 0.81201,0.813z" fill="#FFFFFF" id="svg_97"/>
   <path d="m632.755,232.745l25.104,0c0.44897,0 0.81299,-0.364 0.81299,-0.81c0,-0.44901 -0.36401,-0.813 -0.81299,-0.813l-25.104,0c-0.448,0 -0.81201,0.364 -0.81201,0.813c0,0.446 0.36401,0.81 0.81201,0.81z" fill="#FFFFFF" id="svg_98"/>
   <path d="m632.755,237.004l25.104,0c0.44897,0 0.81299,-0.36299 0.81299,-0.81c0,-0.45 -0.36401,-0.813 -0.81299,-0.813l-25.104,0c-0.448,0 -0.81201,0.36301 -0.81201,0.813c0,0.44701 0.36401,0.81 0.81201,0.81z" fill="#FFFFFF" id="svg_99"/>
   <path d="m632.755,241.263l16.75702,0c0.44897,0 0.81195,-0.35899 0.81195,-0.81c0,-0.44902 -0.36298,-0.813 -0.81195,-0.813l-16.75702,0c-0.448,0 -0.81201,0.364 -0.81201,0.813c0,0.451 0.36401,0.81 0.81201,0.81z" fill="#FFFFFF" id="svg_100"/>
   <path d="m632.755,211.442l25.104,0c0.44897,0 0.81299,-0.36 0.81299,-0.81c0,-0.45 -0.36401,-0.812 -0.81299,-0.812l-25.104,0c-0.448,0 -0.81201,0.36298 -0.81201,0.812c0,0.45 0.36401,0.81 0.81201,0.81z" fill="#FFFFFF" id="svg_101"/>
   <path d="m632.755,215.70399l25.104,0c0.44897,0 0.81299,-0.36302 0.81299,-0.81201c0,-0.446 -0.36401,-0.80899 -0.81299,-0.80899l-25.104,0c-0.448,0 -0.81201,0.36299 -0.81201,0.80899c0,0.44902 0.36401,0.81201 0.81201,0.81201z" fill="#FFFFFF" id="svg_102"/>
   <path d="m395.61499,180.00301c-5.77802,0 -10.53101,4.23601 -11.41501,9.765c-0.78198,-0.304 -1.62,-0.48398 -2.505,-0.48398c-3.84598,0 -6.961,3.11699 -6.961,6.959c0,3.84299 3.11502,6.95998 6.961,6.95998l13.92001,0c6.405,0 11.60101,-5.19298 11.60101,-11.601c0,-6.40601 -5.19501,-11.599 -11.60101,-11.599z" stroke-miterlimit="10" stroke-linejoin="round" stroke-linecap="round" stroke-width="3" stroke="#FFFFFF" fill="none" id="svg_103"/>
   <path d="m367.77301,244.967c0,0 9.28101,-23.202 20.88101,-23.202c11.59998,0 20.88199,13.92101 20.88199,13.92101l13.98901,-23.98102c1.396,-2.39099 3.95599,-3.86099 6.72299,-3.86099c2.94699,0 5.642,1.66499 6.95999,4.302l16.41101,32.81998" stroke-miterlimit="10" stroke-linejoin="round" stroke-linecap="round" stroke-width="3" stroke="#FFFFFF" fill="none" id="svg_104"/>
   <circle r="16.792" cy="270.554" cx="248.205" fill="#E6E7E8" id="svg_105"/>
   <path d="m227.539,199.52499c1.433,0 2.59599,-1.16501 2.59599,-2.59801c0,-1.43199 -1.16299,-2.59901 -2.59599,-2.59901c-1.435,0 -2.60001,1.16702 -2.60001,2.59901c0,1.43401 1.16501,2.59801 2.60001,2.59801zm0,-3.73199c0.625,0 1.136,0.507 1.136,1.134c0,0.627 -0.511,1.134 -1.136,1.134c-0.627,0 -1.14,-0.507 -1.14,-1.134c0,-0.627 0.513,-1.134 1.14,-1.134z" fill="#FFFFFF" id="svg_106"/>
   <path d="m231.356,182.283c1.431,0 2.597,-1.168 2.597,-2.599c0,-1.43402 -1.16701,-2.59802 -2.597,-2.59802c-1.436,0 -2.603,1.16502 -2.603,2.59802c0.00098,1.431 1.16698,2.599 2.603,2.599zm0,-3.73601c0.623,0 1.13499,0.51001 1.13499,1.13701c0,0.627 -0.51199,1.136 -1.13499,1.136c-0.627,0 -1.13901,-0.509 -1.13901,-1.136c0,-0.62602 0.51201,-1.13701 1.13901,-1.13701z" fill="#FFFFFF" id="svg_107"/>
   <path d="m231.965,184.692c-1.13498,0 -2.058,0.925 -2.058,2.058c0,1.131 0.923,2.05499 2.058,2.05499c1.132,0 2.05301,-0.924 2.05301,-2.05499c0,-1.133 -0.92101,-2.058 -2.05301,-2.058zm0,2.65199c-0.328,0 -0.59599,-0.26602 -0.59599,-0.59401c0,-0.32701 0.26799,-0.593 0.59599,-0.593c0.32402,0 0.588,0.26601 0.588,0.593c0,0.32802 -0.26398,0.59401 -0.588,0.59401z" fill="#FFFFFF" id="svg_108"/>
   <path d="m225.66701,186.774c1.131,0 2.054,-0.924 2.054,-2.05501c0,-1.12999 -0.923,-2.04999 -2.054,-2.04999c-1.131,0 -2.05099,0.92 -2.05099,2.04999c-0.00002,1.13199 0.91998,2.05501 2.05099,2.05501zm0,-2.64301c0.326,0 0.592,0.263 0.592,0.58899c0,0.32799 -0.267,0.59398 -0.592,0.59398c-0.33099,0 -0.588,-0.263 -0.588,-0.59398c-0.00002,-0.33 0.25699,-0.58899 0.588,-0.58899z" fill="#FFFFFF" id="svg_109"/>
   <path d="m232.67101,202.16901c1.13501,0 2.058,-0.924 2.058,-2.05499c0,-1.13399 -0.92299,-2.054 -2.058,-2.054c-1.129,0 -2.049,0.92001 -2.049,2.054c-0.00002,1.132 0.92,2.05499 2.049,2.05499zm0,-2.64401c0.32701,0 0.59401,0.263 0.59401,0.58899c0,0.33102 -0.263,0.59401 -0.59401,0.59401c-0.32898,0 -0.586,-0.26299 -0.586,-0.59401c-0.00101,-0.33199 0.25699,-0.58899 0.586,-0.58899z" fill="#FFFFFF" id="svg_110"/>
   <path d="m236.88,238.71001l-6.27701,0l0,-19.707c5.11101,-1.13498 8.56801,-8.21399 8.56801,-18.011c0,-3.608 -0.48601,-7.14299 -1.40601,-10.213c-0.185,-0.619 -0.755,-1.045 -1.401,-1.045l-14.44403,0c-0.64699,0 -1.217,0.42599 -1.39998,1.045c-0.91902,3.077 -1.40602,6.60701 -1.40602,10.213c0,9.79602 3.457,16.87201 8.56601,18.009l0,19.70801l-6.27399,0c-0.80702,0 -1.46301,0.651 -1.46301,1.461c0,0.80899 0.65601,1.46101 1.46301,1.46101l15.474,0c0.808,0 1.461,-0.65202 1.461,-1.46101c0,-0.80902 -0.653,-1.46001 -1.461,-1.46001l0.00002,0zm-13.847,-46.05l12.22098,0c0.65202,2.55299 0.99301,5.41 0.99301,8.33299c0,1.14601 -0.054,2.22101 -0.14601,3.242l-13.91698,0c-0.091,-1.021 -0.14601,-2.095 -0.14601,-3.242c0.00101,-2.92299 0.343,-5.78 0.99501,-8.33299zm-0.681,13.03799l13.58301,0c-0.94902,6.886 -3.94101,10.56 -6.79201,10.56c-2.851,0 -5.843,-3.674 -6.791,-10.56z" fill="#FFFFFF" id="svg_111"/>
   <path d="m253.677,199.30499c1.43399,0 2.59698,-1.16501 2.59698,-2.599c0,-1.43001 -1.16299,-2.59801 -2.59698,-2.59801c-1.435,0 -2.60001,1.168 -2.60001,2.59801c0,1.43401 1.16501,2.599 2.60001,2.599zm0,-3.73399c0.625,0 1.13499,0.507 1.13499,1.134c0,0.62799 -0.50999,1.134 -1.13499,1.134c-0.627,0 -1.14,-0.50601 -1.14,-1.134c0,-0.62601 0.513,-1.134 1.14,-1.134z" fill="#FFFFFF" id="svg_112"/>
   <path d="m257.49399,182.062c1.43201,0 2.59702,-1.168 2.59702,-2.59799c0,-1.43401 -1.16602,-2.59801 -2.59702,-2.59801c-1.436,0 -2.60201,1.16501 -2.60201,2.59801c0.00102,1.42999 1.16701,2.59799 2.60201,2.59799zm0,-3.735c0.62302,0 1.13501,0.51001 1.13501,1.13701s-0.51199,1.136 -1.13501,1.136c-0.62698,0 -1.13901,-0.509 -1.13901,-1.136s0.51202,-1.13701 1.13901,-1.13701z" fill="#FFFFFF" id="svg_113"/>
   <path d="m258.103,184.472c-1.13599,0 -2.05798,0.924 -2.05798,2.05701c0,1.131 0.922,2.05499 2.05798,2.05499c1.13199,0 2.05301,-0.923 2.05301,-2.05499c-0.00101,-1.13301 -0.922,-2.05701 -2.05301,-2.05701zm0,2.651c-0.327,0 -0.595,-0.265 -0.595,-0.59399c0,-0.32701 0.26901,-0.59401 0.595,-0.59401c0.32401,0 0.58801,0.267 0.58801,0.59401c0,0.32799 -0.26401,0.59399 -0.58801,0.59399z" fill="#FFFFFF" id="svg_114"/>
   <path d="m251.80499,186.554c1.132,0 2.054,-0.923 2.054,-2.054c0,-1.13 -0.922,-2.05099 -2.054,-2.05099s-2.05,0.92 -2.05,2.05099c-0.00099,1.13 0.91801,2.054 2.05,2.054zm0,-2.644c0.326,0 0.593,0.26199 0.593,0.58899s-0.267,0.593 -0.593,0.593c-0.33101,0 -0.589,-0.26199 -0.589,-0.593s0.25801,-0.58899 0.589,-0.58899z" fill="#FFFFFF" id="svg_115"/>
   <path d="m258.80801,201.94901c1.13501,0 2.05798,-0.92299 2.05798,-2.054c0,-1.13498 -0.92297,-2.05498 -2.05798,-2.05498c-1.129,0 -2.048,0.92 -2.048,2.05498c0,1.13101 0.91898,2.054 2.048,2.054zm0,-2.64401c0.32901,0 0.595,0.263 0.595,0.59001c0,0.33 -0.263,0.593 -0.595,0.593c-0.32901,0 -0.58499,-0.263 -0.58499,-0.593c-0.00003,-0.33397 0.25598,-0.59001 0.58499,-0.59001z" fill="#FFFFFF" id="svg_116"/>
   <path d="m263.01801,238.48801l-6.27899,0l0,-19.70599c5.112,-1.13599 8.569,-8.21399 8.569,-18.01001c0,-3.61 -0.48599,-7.144 -1.405,-10.21399c-0.185,-0.61801 -0.755,-1.04401 -1.401,-1.04401l-14.444,0c-0.64699,0 -1.21701,0.42599 -1.40001,1.04401c-0.91899,3.078 -1.40599,6.608 -1.40599,10.21399c0,9.79602 3.45799,16.871 8.56599,18.009l0,19.707l-6.27299,0c-0.808,0 -1.46201,0.653 -1.46201,1.46202c0,0.80898 0.655,1.461 1.46201,1.461l15.474,0c0.80798,0 1.461,-0.65202 1.461,-1.461c-0.00101,-0.80902 -0.65402,-1.46202 -1.46201,-1.46202zm-13.84801,-46.05l12.22099,0c0.65302,2.554 0.99402,5.41101 0.99402,8.334c0,1.14601 -0.05502,2.22099 -0.146,3.23999l-13.91701,0c-0.091,-1.01999 -0.145,-2.09398 -0.145,-3.23999c0.00099,-2.92299 0.342,-5.78 0.993,-8.334zm-0.681,13.03999l13.58299,0c-0.948,6.886 -3.94,10.55901 -6.79199,10.55901c-2.85001,0 -5.842,-3.67299 -6.791,-10.55901z" fill="#FFFFFF" id="svg_117"/>
   <path d="m278.85199,200.118c1.43399,0 2.59702,-1.164 2.59702,-2.59799c0,-1.431 -1.16302,-2.599 -2.59702,-2.599c-1.435,0 -2.599,1.168 -2.599,2.599c0,1.43399 1.164,2.59799 2.599,2.59799zm0,-3.73198c0.625,0 1.13501,0.508 1.13501,1.13399s-0.51001,1.134 -1.13501,1.134c-0.62601,0 -1.14001,-0.507 -1.14001,-1.134s0.51404,-1.13399 1.14001,-1.13399z" fill="#FFFFFF" id="svg_118"/>
   <path d="m282.67001,182.87601c1.43201,0 2.59799,-1.168 2.59799,-2.599c0,-1.43399 -1.16599,-2.59799 -2.59799,-2.59799c-1.435,0 -2.60199,1.16499 -2.60199,2.59799c-0.00003,1.43098 1.16696,2.599 2.60199,2.599zm0,-3.735c0.62299,0 1.13501,0.51001 1.13501,1.13701c0,0.627 -0.513,1.13699 -1.13501,1.13699c-0.62701,0 -1.13901,-0.50999 -1.13901,-1.13699c0,-0.627 0.51099,-1.13701 1.13901,-1.13701z" fill="#FFFFFF" id="svg_119"/>
   <path d="m283.27899,185.285c-1.13602,0 -2.05899,0.925 -2.05899,2.05899c0,1.12999 0.922,2.054 2.05899,2.054c1.13101,0 2.052,-0.92401 2.052,-2.054c0,-1.13399 -0.92099,-2.05899 -2.052,-2.05899zm0,2.65199c-0.328,0 -0.59601,-0.26599 -0.59601,-0.593c0,-0.32799 0.26801,-0.59399 0.59601,-0.59399c0.323,0 0.58801,0.26601 0.58801,0.59399c0,0.32701 -0.26501,0.593 -0.58801,0.593z" fill="#FFFFFF" id="svg_120"/>
   <path d="m276.98099,187.368c1.13199,0 2.05402,-0.92299 2.05402,-2.054c0,-1.12999 -0.92203,-2.05098 -2.05402,-2.05098s-2.05099,0.92 -2.05099,2.05098c0,1.13101 0.91901,2.054 2.05099,2.054zm0,-2.644c0.32501,0 0.59201,0.26199 0.59201,0.589c0,0.328 -0.26801,0.593 -0.59201,0.593c-0.33099,0 -0.59,-0.263 -0.59,-0.593s0.259,-0.589 0.59,-0.589z" fill="#FFFFFF" id="svg_121"/>
   <path d="m283.98401,202.763c1.13501,0 2.05801,-0.923 2.05801,-2.054c0,-1.13499 -0.923,-2.05499 -2.05801,-2.05499c-1.129,0 -2.04901,0.92 -2.04901,2.05499c0,1.131 0.91901,2.054 2.04901,2.054zm0,-2.645c0.328,0 0.595,0.263 0.595,0.591c0,0.33 -0.263,0.593 -0.595,0.593c-0.32901,0 -0.586,-0.263 -0.586,-0.593c0,-0.334 0.25699,-0.591 0.586,-0.591z" fill="#FFFFFF" id="svg_122"/>
   <path d="m288.194,239.30299l-6.27899,0l0,-19.70601c5.112,-1.136 8.569,-8.21399 8.569,-18.011c0,-3.60899 -0.48602,-7.144 -1.405,-10.21399c-0.186,-0.61801 -0.755,-1.045 -1.401,-1.045l-14.444,0c-0.646,0 -1.216,0.42699 -1.39999,1.045c-0.91901,3.078 -1.40601,6.608 -1.40601,10.21399c0,9.79701 3.45798,16.87201 8.56598,18.00902l0,19.70799l-6.27298,0c-0.80801,0 -1.46301,0.653 -1.46301,1.46101c0,0.81 0.655,1.461 1.46301,1.461l15.474,0c0.80701,0 1.461,-0.65202 1.461,-1.461c-0.00101,-0.80801 -0.655,-1.46101 -1.46201,-1.46101zm-13.84799,-46.04999l12.22101,0c0.65201,2.55199 0.99298,5.40999 0.99298,8.33301c0,1.146 -0.05399,2.222 -0.14499,3.241l-13.91699,0c-0.091,-1.02 -0.14502,-2.095 -0.14502,-3.241c0.00101,-2.92302 0.34201,-5.78001 0.99301,-8.33301zm-0.681,13.039l13.58301,0c-0.94901,6.88599 -3.94101,10.56 -6.79199,10.56c-2.85101,-0.00102 -5.84302,-3.67401 -6.79102,-10.56z" fill="#FFFFFF" id="svg_123"/>
   <polyline points="  121.662,225.093 121.662,247.032 134.825,247.032 134.825,231.675 145.795,231.675 145.795,247.032 158.958,247.032 158.958,226.19   " stroke-miterlimit="10" stroke-linejoin="round" stroke-linecap="round" stroke-width="2.5" stroke="#FFFFFF" fill="none" id="svg_124"/>
   <polyline points="  115.08,223.997 140.31,198.766 165.541,223.997 " stroke-miterlimit="10" stroke-linejoin="round" stroke-linecap="round" stroke-width="2.5" stroke="#FFFFFF" fill="none" id="svg_125"/>
   <polyline points="  149.085,200.96 156.764,200.96 156.764,208.639 " stroke-miterlimit="10" stroke-linejoin="round" stroke-linecap="round" stroke-width="2.5" stroke="#FFFFFF" fill="none" id="svg_126"/>
   <path d="m171.37399,370.14499c0,2.26099 -1.73,4.09299 -3.86501,4.09299l-51.521,0c-2.134,0 -3.86401,-1.832 -3.86401,-4.09299l0,-38.18701c0,-2.25998 1.73,-4.09299 3.86401,-4.09299l51.521,0c2.13501,0 3.86501,1.83301 3.86501,4.09299l0,38.18701z" stroke-miterlimit="10" stroke-linejoin="round" stroke-linecap="round" stroke-width="2.5" stroke="#FFFFFF" fill="none" id="svg_127"/>
   <line y2="379.389" x2="159.781" y1="379.389" x1="123.716" stroke-miterlimit="10" stroke-linejoin="round" stroke-linecap="round" stroke-width="2.5" stroke="#FFFFFF" fill="none" id="svg_128"/>
   <line y2="379.389" x2="141.749" y1="374.238" x1="141.749" stroke-miterlimit="10" stroke-linejoin="round" stroke-linecap="round" stroke-width="2.5" stroke="#FFFFFF" fill="none" id="svg_129"/>
   <circle r="1.288" cy="369.084" cx="141.749" stroke-miterlimit="10" stroke-linejoin="round" stroke-linecap="round" stroke-width="2.5" stroke="#FFFFFF" fill="none" id="svg_130"/>
   <line y2="363.932" x2="171.374" y1="363.932" x1="112.123" stroke-miterlimit="10" stroke-linejoin="round" stroke-linecap="round" stroke-width="2.5" stroke="#FFFFFF" fill="none" id="svg_131"/>
   <polyline points="  276.534,482.057 281.797,482.057 281.797,492.583 292.322,482.057 301.531,482.057 301.531,458.375 262.063,458.375   262.063,468.901 " stroke-miterlimit="10" stroke-linejoin="round" stroke-linecap="round" stroke-width="2.5" stroke="#FFFFFF" fill="#FFFFFF" id="svg_132"/>
   <path d="m255.485,499.67899l0,5.71301l-10.371,3.716c-2.48,0.888 -4.101,3.23502 -4.101,5.86801l0,3.91797l39.46799,0l0,-3.91797c0,-2.633 -1.621,-4.98001 -4.10098,-5.86801l-10.371,-3.716l0,-6.09601" stroke-miterlimit="10" stroke-linejoin="round" stroke-linecap="round" stroke-width="2.5" stroke="#FFFFFF" fill="#FFFFFF" id="svg_133"/>
   <ellipse ry="12.466" rx="10.386" cy="488.773" cx="260.488" stroke-miterlimit="10" stroke-linejoin="round" stroke-linecap="round" stroke-width="2.5" stroke="#FFFFFF" fill="#FFFFFF" id="svg_134"/>
   <path d="m270.77802,487.67599c-0.34799,0.04099 -0.59198,-0.01001 -0.94199,0.05798c-3.54001,0.68402 -5.811,-0.59998 -7.759,-4.00897c-1.168,2.241 -4.82001,4.00897 -7.821,4.00897c-1.47701,0 -2.74901,-0.302 -4.02101,-0.96698" stroke-miterlimit="10" stroke-linejoin="round" stroke-linecap="round" stroke-width="2.5" stroke="#FFFFFF" fill="#FFFFFF" id="svg_135"/>
   <polygon points="289.69,470.217 287.06,470.217 287.06,472.848   289.69,472.848 289.69,470.217 " stroke-miterlimit="10" stroke="#FFFFFF" fill="#FFFFFF" id="svg_136"/>
   <polygon points="283.113,470.217 280.481,470.217 280.481,472.848   283.113,472.848 283.113,470.217 " stroke-miterlimit="10" stroke="#FFFFFF" fill="#FFFFFF" id="svg_137"/>
   <polygon points="276.534,470.217 273.903,470.217 273.903,472.848   276.534,472.848 276.534,470.217 " stroke-miterlimit="10" stroke="#FFFFFF" fill="#FFFFFF" id="svg_138"/>
   <path d="m479.78,467.17899l-11.24799,0l0,-7.08899c0,-0.88101 -0.71201,-1.591 -1.595,-1.591l-18.37302,0c-0.879,0 -1.59299,0.70999 -1.59299,1.591l0,7.08899l-11.25101,0c-4.39307,0 -7.96899,3.57501 -7.96899,7.966l0,28.67999c0,4.39502 3.57599,7.96899 7.96899,7.96899l44.05899,0c4.39301,0 7.96802,-3.57397 7.96802,-7.96899l0,-28.67999c0.00098,-4.39099 -3.57501,-7.966 -7.96701,-7.966zm-19.34,18.82101l-5.37701,0c-0.44098,0 -0.79898,0.35599 -0.79898,0.79501l0,1.89499l-18.543,0c-3.07401,0 -5.57602,-2.505 -5.57602,-5.578l0,-7.96701c0,-3.069 2.50201,-5.57498 5.57602,-5.57498l44.05899,0c3.07501,0 5.578,2.50598 5.578,5.57498l0,7.96701c0,3.073 -2.50299,5.578 -5.578,5.578l-18.54199,0l0,-1.89499c0,-0.43802 -0.35699,-0.79501 -0.798,-0.79501zm-0.79501,1.59399l0,3.78299l-3.785,0l0,-3.78299l3.785,0zm-9.48599,-25.91l15.18701,0l0,5.495l-15.18701,0l0,-5.495zm29.621,46.92102l-44.05899,0c-2.63699,0 -4.78101,-2.14001 -4.78101,-4.78l0,-15.40701c1.272,1.146 2.93799,1.86401 4.78101,1.86401l18.543,0l0,1.89398c0,0.44 0.358,0.79401 0.79898,0.79401l5.37701,0c0.44101,0 0.798,-0.354 0.798,-0.79401l0,-1.89398l18.54199,0c1.84201,0 3.509,-0.71899 4.78,-1.86401l0,15.40701c0,2.63998 -2.14301,4.78 -4.78,4.78z" stroke-miterlimit="10" stroke-width="0.5" stroke="#FFFFFF" fill="#FFFFFF" id="svg_139"/>
   <polyline points="  503.557,512.806 497.936,504.395 491.434,512.149 " stroke-miterlimit="10" stroke-linejoin="round" stroke-linecap="round" stroke-width="2.5" stroke="#FFFFFF" fill="none" id="svg_140"/>
   <path d="m497.96701,504.435c1.672,8.922 -4.73999,17.68597 -13.314,19.69202c-5.979,1.40497 -11.96802,-0.50403 -16.035,-4.52899" stroke-miterlimit="10" stroke-linejoin="round" stroke-linecap="round" stroke-width="2.5" stroke="#FFFFFF" fill="none" id="svg_141"/>
   <path d="m611.42297,516.10101l76.55499,0c0.70599,0 1.354,-0.38898 1.67999,-1.01501c0.328,-0.62201 0.28601,-1.37701 -0.11401,-1.961l-8.13,-11.84299l0,-41.638c0,-1.048 -0.84998,-1.89999 -1.89795,-1.89999l-59.63403,0c-1.05096,0 -1.901,0.853 -1.901,1.89999l0,41.638l-8.12195,11.84299c-0.39905,0.58801 -0.44202,1.33899 -0.11401,1.961c0.32397,0.62598 0.97302,1.01501 1.67798,1.01501zm10.35504,-54.55502l55.83698,0l0,38.427l-55.83698,0l0,-38.427zm-0.896,42.22501l57.63202,0l5.85596,8.534l-69.341,0l5.85303,-8.534z" fill="#FFFFFF" id="svg_142"/>
   <path d="m621.78802,508.54199l-1.90002,0c-0.52496,0 -0.95099,0.42401 -0.95099,0.95099c0,0.52499 0.42603,0.948 0.95099,0.948l1.90002,0c0.52399,0 0.94897,-0.423 0.94897,-0.948c0,-0.52798 -0.42499,-0.95099 -0.94897,-0.95099z" fill="#FFFFFF" id="svg_143"/>
   <path d="m651.56097,508.54199l-3.72101,0c-0.52197,0 -0.95099,0.42401 -0.95099,0.95099c0,0.52499 0.42902,0.948 0.95099,0.948l3.72101,0c0.526,0 0.953,-0.423 0.953,-0.948c0,-0.52798 -0.427,-0.95099 -0.953,-0.95099z" fill="#FFFFFF" id="svg_144"/>
   <path d="m659.00702,508.54199l-3.72101,0c-0.52802,0 -0.953,0.42401 -0.953,0.95099c0,0.52499 0.42499,0.948 0.953,0.948l3.72101,0c0.52399,0 0.95001,-0.423 0.95001,-0.948c-0.00006,-0.52798 -0.42603,-0.95099 -0.95001,-0.95099z" fill="#FFFFFF" id="svg_145"/>
   <path d="m644.11798,508.54199l-3.71997,0c-0.52502,0 -0.953,0.42401 -0.953,0.95099c0,0.52499 0.42798,0.948 0.953,0.948l3.71997,0c0.52399,0 0.95001,-0.423 0.95001,-0.948c0,-0.52798 -0.42499,-0.95099 -0.95001,-0.95099z" fill="#FFFFFF" id="svg_146"/>
   <path d="m636.677,508.54199l-3.72198,0c-0.52502,0 -0.95203,0.42401 -0.95203,0.95099c0,0.52499 0.427,0.948 0.95203,0.948l3.72198,0c0.52399,0 0.94897,-0.423 0.94897,-0.948c0,-0.52798 -0.42499,-0.95099 -0.94897,-0.95099z" fill="#FFFFFF" id="svg_147"/>
   <path d="m629.23199,508.54199l-3.72302,0c-0.52399,0 -0.94897,0.42401 -0.94897,0.95099c0,0.52499 0.42499,0.948 0.94897,0.948l3.72302,0c0.52301,0 0.948,-0.423 0.948,-0.948c0.00104,-0.52798 -0.42401,-0.95099 -0.948,-0.95099z" fill="#FFFFFF" id="svg_148"/>
   <path d="m666.45001,508.54199l-3.724,0c-0.52203,0 -0.94897,0.42401 -0.94897,0.95099c0,0.52499 0.42694,0.948 0.94897,0.948l3.724,0c0.521,0 0.948,-0.423 0.948,-0.948c0,-0.52798 -0.42603,-0.95099 -0.948,-0.95099z" fill="#FFFFFF" id="svg_149"/>
   <path d="m673.89502,508.54199l-3.724,0c-0.52502,0 -0.95099,0.42401 -0.95099,0.95099c0,0.52499 0.42596,0.948 0.95099,0.948l3.724,0c0.52301,0 0.94702,-0.423 0.94702,-0.948c-0.00006,-0.52798 -0.42401,-0.95099 -0.94702,-0.95099z" fill="#FFFFFF" id="svg_150"/>
   <path d="m679.51501,508.54199l-1.89899,0c-0.526,0 -0.95099,0.42401 -0.95099,0.95099c0,0.52499 0.42499,0.948 0.95099,0.948l1.89899,0c0.52197,0 0.95099,-0.423 0.95099,-0.948c0,-0.52798 -0.42902,-0.95099 -0.95099,-0.95099z" fill="#FFFFFF" id="svg_151"/>
   <path d="m624.94397,506.285c0,-0.521 -0.42603,-0.94699 -0.95001,-0.94699l-1.89697,0c-0.52704,0 -0.953,0.42599 -0.953,0.94699c0,0.526 0.42596,0.94998 0.953,0.94998l1.89697,0c0.52502,0 0.95001,-0.42398 0.95001,-0.94998z" fill="#FFFFFF" id="svg_152"/>
   <path d="m635.85797,507.23499l3.95502,0c0.52496,0 0.948,-0.42398 0.948,-0.94998c0,-0.52103 -0.42303,-0.94702 -0.948,-0.94702l-3.95502,0c-0.52502,0 -0.95001,0.42599 -0.95001,0.94702c0.00006,0.526 0.42505,0.94998 0.95001,0.94998z" fill="#FFFFFF" id="svg_153"/>
   <path d="m651.67798,507.23499l3.95599,0c0.52502,0 0.94598,-0.42398 0.94598,-0.94998c0,-0.52103 -0.42096,-0.94702 -0.94598,-0.94702l-3.95599,0c-0.52502,0 -0.94897,0.42599 -0.94897,0.94702c0,0.526 0.42297,0.94998 0.94897,0.94998z" fill="#FFFFFF" id="svg_154"/>
   <path d="m659.59003,507.23499l3.95203,0c0.52496,0 0.94897,-0.42398 0.94897,-0.94998c0,-0.52103 -0.42401,-0.94702 -0.94897,-0.94702l-3.95203,0c-0.52802,0 -0.95203,0.42599 -0.95203,0.94702c0,0.526 0.42401,0.94998 0.95203,0.94998z" fill="#FFFFFF" id="svg_155"/>
   <path d="m643.76898,507.23499l3.95502,0c0.52496,0 0.94995,-0.42398 0.94995,-0.94998c0,-0.52103 -0.42499,-0.94702 -0.94995,-0.94702l-3.95502,0c-0.52399,0 -0.95001,0.42599 -0.95001,0.94702c-0.00098,0.526 0.42505,0.94998 0.95001,0.94998z" fill="#FFFFFF" id="svg_156"/>
   <path d="m632.85199,506.285c0,-0.521 -0.422,-0.94699 -0.948,-0.94699l-3.95502,0c-0.52496,0 -0.94897,0.42599 -0.94897,0.94699c0,0.526 0.42401,0.94998 0.94897,0.94998l3.95502,0c0.526,0 0.948,-0.42398 0.948,-0.94998z" fill="#FFFFFF" id="svg_157"/>
   <path d="m672.40002,506.285c0,-0.521 -0.42401,-0.94699 -0.94702,-0.94699l-3.95496,0c-0.52802,0 -0.95001,0.42599 -0.95001,0.94699c0,0.526 0.422,0.94998 0.95001,0.94998l3.95496,0c0.52399,0 0.94702,-0.42398 0.94702,-0.94998z" fill="#FFFFFF" id="svg_158"/>
   <path d="m678.25897,506.285c0,-0.521 -0.427,-0.94699 -0.95001,-0.94699l-1.89899,0c-0.52698,0 -0.95099,0.42599 -0.95099,0.94699c0,0.526 0.42401,0.94998 0.95099,0.94998l1.89899,0c0.52301,0 0.95001,-0.42398 0.95001,-0.94998z" fill="#FFFFFF" id="svg_159"/>
   <path d="m689.18402,517.41199l-78.96698,0c-0.52502,0 -0.95001,0.42102 -0.95001,0.94702s0.42499,0.95197 0.95001,0.95197l78.96698,0c0.526,0 0.95001,-0.42596 0.95001,-0.95197s-0.42401,-0.94702 -0.95001,-0.94702z" fill="#FFFFFF" id="svg_160"/>
   <path d="m660.14398,491.19901l-16.43201,0c4.26898,-2.76999 9.26501,-8.35599 12.81201,-15.17502l-0.06903,0.83704c-0.03998,0.52197 0.35004,0.97998 0.87103,1.02496c0.02496,0 0.05402,0 0.08002,0c0.487,0 0.90399,-0.37799 0.94397,-0.87598l0.51099,-6.33701c0,-0.01099 -0.01196,-0.022 -0.01196,-0.04001c0.00598,-0.17297 -0.03204,-0.336 -0.112,-0.48599c-0.01404,-0.026 -0.03302,-0.047 -0.05304,-0.07498c-0.08496,-0.12402 -0.19598,-0.23102 -0.341,-0.30301c-0.01495,-0.01102 -0.02197,-0.03 -0.03998,-0.03299c-0.01001,-0.004 -0.01898,0 -0.02301,-0.004c-0.01501,-0.01001 -0.02197,-0.02103 -0.03601,-0.02103c-0.151,-0.06097 -0.30896,-0.06097 -0.46295,-0.04099c-0.03802,0.00598 -0.07001,0.01999 -0.11005,0.02899c-0.164,0.04401 -0.31897,0.11694 -0.43799,0.241c-0.00201,0.00195 -0.005,0.00195 -0.00702,0.00195l-0.00098,0.00598c-0.00098,0 -0.00098,0 -0.005,0l-4.383,4.59305c-0.36499,0.38095 -0.349,0.98297 0.03101,1.34497c0.38,0.362 0.98297,0.35007 1.34399,-0.03101l0.599,-0.62601c-4.52802,8.73499 -11.26697,14.91 -15.14801,15.84399l0,-20.349c0,-0.52701 -0.427,-0.95401 -0.95001,-0.95401c-0.52496,0 -0.94897,0.427 -0.94897,0.95401l0,20.47601l-1.823,0c-0.526,0 -0.95001,0.427 -0.95001,0.95398c0,0.52402 0.42401,0.95001 0.95001,0.95001l1.823,0l0,1.46594c0,0.526 0.42401,0.95102 0.94897,0.95102c0.52301,0 0.95001,-0.42502 0.95001,-0.95102l0,-1.46594l20.48102,0c0.52399,0 0.95099,-0.42599 0.95099,-0.95001c0,-0.52899 -0.42694,-0.95499 -0.95099,-0.95499l0,0.00003l0,0.00003z" fill="#FFFFFF" id="svg_161"/>
   <rect height="89.637" width="232.423" fill="none" y="112.648" x="473.469" id="svg_162"/>
   <text transform="matrix(1,0,0,1,473.4692,123.5444) " id="svg_163">
    <tspan font-size="15.2182" font-family="&#x27;Arial-BoldMT'" fill="#FFFFFF" y="0" x="0" id="svg_164">2005-2009</tspan>
    <tspan font-size="15.2182" font-family="&#x27;Arial-BoldMT'" fill="#FFFFFF" y="18.262" x="0" id="svg_165">High School: spent most of my</tspan>
    <tspan font-size="15.2182" font-family="&#x27;Arial-BoldMT'" fill="#FFFFFF" y="36.524" x="0" id="svg_166">time at the newspaper office,</tspan>
    <tspan font-size="15.2182" font-family="&#x27;Arial-BoldMT'" fill="#FFFFFF" y="54.786" x="0" id="svg_167">yelling at InDesign</tspan>
   </text>
   <rect height="89.638" width="221.881" fill="none" y="110.62" x="766.69" id="svg_168"/>
   <text transform="matrix(1,0,0,1,766.6914,121.5161) " id="svg_169">
    <tspan font-size="15.2182" font-family="&#x27;Arial-BoldMT'" fill="#FFFFFF" y="0" x="0" id="svg_170">August 2009</tspan>
    <tspan font-size="15.2182" font-family="&#x27;Arial-BoldMT'" fill="#FFFFFF" y="18.262" x="0" id="svg_171">College: attended the</tspan>
    <tspan font-size="15.2182" font-family="&#x27;Arial-BoldMT'" fill="#FFFFFF" y="36.524" x="0" id="svg_172">University of Miami’s School</tspan>
    <tspan font-size="15.2182" font-family="&#x27;Arial-BoldMT'" fill="#FFFFFF" y="54.786" x="0" id="svg_173">of Communication</tspan>
   </text>
   <rect height="89.638" width="221.881" fill="none" y="100.99" x="1042.614" id="svg_174"/>
   <text transform="matrix(1,0,0,1,1042.6152,111.8867) " id="svg_175">
    <tspan font-size="15.2182" font-family="&#x27;Arial-BoldMT'" fill="#FFFFFF" y="0" x="0" id="svg_176">2010</tspan>
    <tspan font-size="15.2182" font-family="&#x27;Arial-BoldMT'" fill="#FFFFFF" y="18.262" x="0" id="svg_177">Became</tspan>
    <tspan font-size="15.2182" font-family="&#x27;Arial-BoldItalicMT'" fill="#FFFFFF" y="36.524" x="0" id="svg_178">Distraction</tspan>
    <tspan font-size="15.2182" font-family="&#x27;Arial-BoldItalicMT'" fill="#FFFFFF" y="54.786" x="0" id="svg_179">Magazine</tspan>
    <tspan font-size="15.2182" font-family="&#x27;Arial-BoldMT'" fill="#FFFFFF" y="54.786" x="68.498" id="svg_180">’s</tspan>
    <tspan font-size="15.2182" font-family="&#x27;Arial-BoldMT'" fill="#FFFFFF" y="73.047" x="0" id="svg_181">Art Director</tspan>
   </text>
   <rect height="89.638" width="209.494" fill="none" y="297.94" x="924.411" id="svg_182"/>
   <text transform="matrix(1,0,0,1,924.4121,308.8374) " id="svg_183">
    <tspan font-size="15.2182" font-family="&#x27;Arial-BoldMT'" fill="#FFFFFF" y="0" x="0" id="svg_184">May 2010</tspan>
    <tspan font-size="15.2182" font-family="&#x27;Arial-BoldMT'" fill="#FFFFFF" y="18.262" x="0" id="svg_185">Landed my first job! As a</tspan>
    <tspan font-size="15.2182" font-family="&#x27;Arial-BoldMT'" fill="#FFFFFF" y="36.523" x="0" id="svg_186">workstudy graphic designer</tspan>
    <tspan font-size="15.2182" font-family="&#x27;Arial-BoldMT'" fill="#FFFFFF" y="54.785" x="0" id="svg_187">at Miami Law</tspan>
   </text>
   <rect height="89.638" width="155.405" fill="none" y="297.94" x="753.891" id="svg_188"/>
   <text transform="matrix(1,0,0,1,753.8916,308.8374) " id="svg_189">
    <tspan font-size="15.2182" font-family="&#x27;Arial-BoldMT'" fill="#FFFFFF" y="0" x="0" id="svg_190">2011</tspan>
    <tspan font-size="15.2182" font-family="&#x27;Arial-BoldMT'" fill="#FFFFFF" y="18.262" x="0" id="svg_191">Started working as a</tspan>
    <tspan font-size="15.2182" font-family="&#x27;Arial-BoldMT'" fill="#FFFFFF" y="36.523" x="0" id="svg_192">Multimedia Designer</tspan>
    <tspan font-size="15.2182" font-family="&#x27;Arial-BoldMT'" fill="#FFFFFF" y="54.785" x="0" id="svg_193">at the</tspan>
    <tspan font-size="15.2182" font-family="&#x27;Arial-BoldItalicMT'" fill="#FFFFFF" y="54.785" x="44.815" id="svg_194">Miami Herald</tspan>
   </text>
   <rect height="89.638" width="194.077" fill="none" y="296.975" x="532.239" id="svg_195"/>
   <text transform="matrix(1,0,0,1,532.2393,307.8726) " id="svg_196">
    <tspan font-size="15.2182" font-family="&#x27;Arial-BoldMT'" fill="#FFFFFF" y="0" x="0" id="svg_197">2011</tspan>
    <tspan font-size="15.2182" font-family="&#x27;Arial-BoldMT'" fill="#FFFFFF" y="18.262" x="0" id="svg_198">Finally decided on a very</tspan>
    <tspan font-size="15.2182" font-family="&#x27;Arial-BoldMT'" fill="#FFFFFF" y="36.523" x="0" id="svg_199">practical second major --</tspan>
    <tspan font-size="15.2182" font-family="&#x27;Arial-BoldMT'" fill="#FFFFFF" y="54.785" x="0" id="svg_200">Western European History</tspan>
   </text>
   <rect height="89.638" width="194.077" fill="none" y="296.975" x="340.375" id="svg_201"/>
   <text transform="matrix(1,0,0,1,340.375,307.8726) " id="svg_202">
    <tspan font-size="15.2182" font-family="&#x27;Arial-BoldMT'" fill="#FFFFFF" y="0" x="0" id="svg_203">2012</tspan>
    <tspan font-size="15.2182" font-family="&#x27;Arial-BoldMT'" fill="#FFFFFF" y="18.262" x="0" id="svg_204">Thanks to my double</tspan>
    <tspan font-size="15.2182" font-family="&#x27;Arial-BoldMT'" fill="#FFFFFF" y="36.523" x="0" id="svg_205">major, I traveled to</tspan>
    <tspan font-size="15.2182" font-family="&#x27;Arial-BoldMT'" fill="#FFFFFF" y="54.785" x="0" id="svg_206">Lancaster in the UK to</tspan>
    <tspan font-size="15.2182" font-family="&#x27;Arial-BoldMT'" fill="#FFFFFF" y="73.047" x="0" id="svg_207">study English History</tspan>
   </text>
   <rect height="89.638" width="129.971" fill="none" y="296.975" x="206.511" id="svg_208"/>
   <text transform="matrix(1,0,0,1,206.5112,307.8726) " id="svg_209">
    <tspan font-size="15.2182" font-family="&#x27;Arial-BoldMT'" fill="#FFFFFF" y="0" x="0" id="svg_210">2012</tspan>
    <tspan font-size="15.2182" font-family="&#x27;Arial-BoldMT'" fill="#FFFFFF" y="18.262" x="0" id="svg_211">Graduated! A</tspan>
    <tspan font-size="15.2182" font-family="&#x27;Arial-BoldMT'" fill="#FFFFFF" y="36.523" x="0" id="svg_212">semester early</tspan>
    <tspan font-size="15.2182" font-family="&#x27;Arial-BoldMT'" fill="#FFFFFF" y="54.785" x="0" id="svg_213">(phew)</tspan>
   </text>
   <rect height="89.638" width="129.971" fill="none" y="192.583" id="svg_214"/>
   <text transform="matrix(1,0,0,1,0.0004882812,203.4805) " id="svg_215">
    <tspan font-size="15.2182" font-family="&#x27;Arial-BoldMT'" fill="#FFFFFF" y="0" x="0" id="svg_216">2013</tspan>
    <tspan font-size="15.2182" font-family="&#x27;Arial-BoldMT'" fill="#FFFFFF" y="18.262" x="0" id="svg_217">Got my very</tspan>
    <tspan font-size="15.2182" font-family="&#x27;Arial-BoldMT'" fill="#FFFFFF" y="36.524" x="0" id="svg_218">own first place:</tspan>
    <tspan font-size="15.2182" font-family="&#x27;Arial-BoldMT'" fill="#FFFFFF" y="54.786" x="0" id="svg_219">it was terrible.</tspan>
   </text>
   <rect height="89.638" width="129.971" fill="none" y="402.4" x="6.179" id="svg_220"/>
   <text transform="matrix(1,0,0,1,6.1792,413.2974) " id="svg_221">
    <tspan font-size="15.2182" font-family="&#x27;Arial-BoldMT'" fill="#FFFFFF" y="0" x="0" id="svg_222">2013</tspan>
    <tspan font-size="15.2182" font-family="&#x27;Arial-BoldMT'" fill="#FFFFFF" y="18.262" x="0" id="svg_223">My first</tspan>
    <tspan font-size="15.2182" font-family="&#x27;Arial-BoldMT'" fill="#FFFFFF" y="36.523" x="0" id="svg_224">post grad job</tspan>
    <tspan font-size="15.2182" font-family="&#x27;Arial-BoldMT'" fill="#FFFFFF" y="54.785" x="0" id="svg_225">at MonaBar</tspan>
   </text>
   <rect height="89.639" width="194.077" fill="none" y="513.547" x="179.338" id="svg_226"/>
   <text transform="matrix(1,0,0,1,179.3389,524.4448) " id="svg_227">
    <tspan font-size="15.2182" font-family="&#x27;Arial-BoldMT'" fill="#FFFFFF" y="0" x="0" id="svg_228">2014</tspan>
    <tspan font-size="15.2182" font-family="&#x27;Arial-BoldMT'" fill="#FFFFFF" y="18.262" x="0" id="svg_229">I was lucky enough to</tspan>
    <tspan font-size="15.2182" font-family="&#x27;Arial-BoldMT'" fill="#FFFFFF" y="36.523" x="0" id="svg_230">work with the best e-mail</tspan>
    <tspan font-size="15.2182" font-family="&#x27;Arial-BoldMT'" fill="#FFFFFF" y="54.785" x="0" id="svg_231">team out there at</tspan>
    <tspan font-size="15.2182" font-family="&#x27;Arial-BoldMT'" fill="#FFFFFF" y="73.047" x="0" id="svg_232">TripAdvisor</tspan>
   </text>
   <rect height="89.639" width="194.077" fill="none" y="513.547" x="386.387" id="svg_233"/>
   <text transform="matrix(1,0,0,1,386.3877,524.4448) " id="svg_234">
    <tspan font-size="15.2182" font-family="&#x27;Arial-BoldMT'" fill="#FFFFFF" y="0" x="0" id="svg_235">2014</tspan>
    <tspan font-size="15.2182" font-family="&#x27;Arial-BoldMT'" fill="#FFFFFF" y="18.262" x="0" id="svg_236">Got hired by Miami Law,</tspan>
    <tspan font-size="15.2182" font-family="&#x27;Arial-BoldMT'" fill="#FFFFFF" y="36.523" x="0" id="svg_237">this time as Webmaster</tspan>
   </text>
   <rect height="89.639" width="194.076" fill="none" y="534.241" x="614.687" id="svg_238"/>
   <text transform="matrix(1,0,0,1,614.6875,545.1382) " id="svg_239">
    <tspan font-size="15.2182" font-family="&#x27;Arial-BoldMT'" fill="#FFFFFF" y="0" x="0" id="svg_240">2014</tspan>
    <tspan font-size="15.2182" font-family="&#x27;Arial-BoldMT'" fill="#FFFFFF" y="18.262" x="0" id="svg_241">Started working on my</tspan>
    <tspan font-size="15.2182" font-family="&#x27;Arial-BoldMT'" fill="#FFFFFF" y="36.523" x="0" id="svg_242">MFA in  Interactive Media</tspan>
    <tspan font-size="15.2182" font-family="&#x27;Arial-BoldMT'" fill="#FFFFFF" y="54.785" x="0" id="svg_243">at the University of Miami</tspan>
   </text>
  </symbol>
 </defs>
 <g>
  <title>Layer 1</title>
  <use x="8.10032" y="93.10466" transform="matrix(1.0385035196257228,0,0,1.0385035196257228,-21.9438593868449,-136.3546384702003) " xlink:href="#svg_1" id="svg_2"/>
 </g>
</svg>